<svg width="45" height="45" viewBox="0 0 45 45" fill="none" xmlns="http://www.w3.org/2000/svg">
<path d="M23.2867 13.6233C22.818 13.1547 22.0582 13.1547 21.5896 13.6233L13.1896 22.0233C12.721 22.492 12.721 23.2517 13.1896 23.7204C13.6582 24.189 14.418 24.189 14.8867 23.7204L15.2381 23.3689V31.2719C15.2381 31.9346 15.7754 32.4719 16.4381 32.4719H18.8381C19.5009 32.4719 20.0381 31.9346 20.0381 31.2719V28.8719C20.0381 28.2091 20.5754 27.6719 21.2381 27.6719H23.6381C24.3009 27.6719 24.8381 28.2091 24.8381 28.8719V31.2719C24.8381 31.9346 25.3754 32.4719 26.0381 32.4719H28.4381C29.1009 32.4719 29.6381 31.9346 29.6381 31.2719V23.3689L29.9896 23.7204C30.4582 24.189 31.218 24.189 31.6867 23.7204C32.1553 23.2517 32.1553 22.492 31.6867 22.0233L23.2867 13.6233Z" fill="#FF5C21"/>
</svg>
