<svg width="41" height="41" viewBox="0 0 41 41" fill="none" xmlns="http://www.w3.org/2000/svg">
<path d="M19.4382 16.5898C19.4382 17.1421 18.9905 17.5898 18.4382 17.5898C17.8859 17.5898 17.4382 17.1421 17.4382 16.5898V11.5898C17.4382 11.0375 16.9905 10.5898 16.4382 10.5898C15.8859 10.5898 15.4382 11.0375 15.4382 11.5898V16.5898C15.4382 17.1421 14.9905 17.5898 14.4382 17.5898C13.8859 17.5898 13.4382 17.1421 13.4382 16.5898V11.5898C13.4382 11.0375 12.9905 10.5898 12.4382 10.5898C11.8859 10.5898 11.4382 11.0375 11.4382 11.5898V17.5898C11.4382 19.3861 12.63 20.8952 14.2654 21.3933C14.7707 21.5472 15.1882 21.9713 15.1882 22.4995V29.5898C15.1882 30.1421 15.6359 30.5898 16.1882 30.5898H16.6882C17.2405 30.5898 17.6882 30.1421 17.6882 29.5898V22.4995C17.6882 21.9713 18.1058 21.5472 18.6111 21.3933C20.2464 20.8952 21.4382 19.3861 21.4382 17.5898V11.5898C21.4382 11.0375 20.9905 10.5898 20.4382 10.5898C19.8859 10.5898 19.4382 11.0375 19.4382 11.5898V16.5898ZM24.4382 14.5898V21.5898C24.4382 22.1421 24.8859 22.5898 25.4382 22.5898H25.9382C26.4905 22.5898 26.9382 23.0375 26.9382 23.5898V29.5898C26.9382 30.1421 27.3859 30.5898 27.9382 30.5898H28.4382C28.9905 30.5898 29.4382 30.1421 29.4382 29.5898V11.5898C29.4382 11.0375 28.9863 10.5805 28.4444 10.6868C26.16 11.1348 24.4382 13.0468 24.4382 14.5898Z" fill="#FF5C21"/>
</svg>
