<svg width="45" height="45" viewBox="0 0 45 45" fill="none" xmlns="http://www.w3.org/2000/svg">
<path d="M31.8353 13.821C30.898 12.8837 29.3784 12.8837 28.4412 13.821L19.3382 22.9239V26.318H22.7323L31.8353 17.2151C32.7725 16.2778 32.7725 14.7582 31.8353 13.821Z" fill="#FF5C21"/>
<path fill-rule="evenodd" clip-rule="evenodd" d="M13.3382 17.918C13.3382 16.5926 14.4127 15.518 15.7382 15.518H20.5382C21.201 15.518 21.7382 16.0553 21.7382 16.718C21.7382 17.3808 21.201 17.918 20.5382 17.918H15.7382V29.918H27.7382V25.118C27.7382 24.4553 28.2755 23.918 28.9382 23.918C29.601 23.918 30.1382 24.4553 30.1382 25.118V29.918C30.1382 31.2435 29.0637 32.318 27.7382 32.318H15.7382C14.4127 32.318 13.3382 31.2435 13.3382 29.918V17.918Z" fill="#FF5C21"/>
</svg>
