<svg width="24" height="25" viewBox="0 0 24 25" fill="none" xmlns="http://www.w3.org/2000/svg">
<path d="M3 12.6906L5 10.6906M5 10.6906L12 3.69055L19 10.6906M5 10.6906V20.6906C5 21.2428 5.44772 21.6906 6 21.6906H9M19 10.6906L21 12.6906M19 10.6906V20.6906C19 21.2428 18.5523 21.6906 18 21.6906H15M9 21.6906C9.55228 21.6906 10 21.2428 10 20.6906V16.6906C10 16.1383 10.4477 15.6906 11 15.6906H13C13.5523 15.6906 14 16.1383 14 16.6906V20.6906C14 21.2428 14.4477 21.6906 15 21.6906M9 21.6906H15" stroke="#343434" stroke-width="1.5" stroke-linecap="round" stroke-linejoin="round"/>
</svg>
