<svg width="193" height="131" viewBox="0 0 193 131" fill="none" xmlns="http://www.w3.org/2000/svg">
<g filter="url(#filter0_d_63_6181)">
<path d="M49.7856 63.8373C45.0606 63.379 41.0106 61.5456 38.5356 58.5665C36.7356 58.5665 34.9356 57.4206 34.2606 55.5873C33.5856 53.754 34.2606 51.9206 35.8356 50.7748C36.0606 43.8998 42.1356 36.7956 51.3606 33.5873C60.5856 30.379 70.0356 32.2123 74.5356 37.4831C76.3356 37.4831 78.1356 38.629 78.8106 40.4623C79.4856 42.2956 78.8106 44.129 77.2356 45.2748C77.2356 47.1081 76.7856 48.9415 75.8856 50.7748C73.1856 49.1706 70.0356 48.0248 66.6606 48.0248C57.8856 48.0248 50.4606 54.8998 49.7856 63.8373ZM79.0356 65.2123C79.0356 72.0873 73.4106 77.8165 66.6606 77.8165C59.9106 77.8165 54.2856 72.0873 54.2856 65.2123C54.2856 58.3373 59.9106 52.6081 66.6606 52.6081C73.4106 52.6081 79.0356 58.3373 79.0356 65.2123ZM59.4606 68.6498L64.6356 65.2123L59.4606 61.7748C59.0106 62.9206 58.7856 64.0665 58.7856 65.2123C58.7856 66.3581 59.0106 67.504 59.4606 68.6498ZM65.5356 67.2748L60.8106 70.4831C61.9356 71.8581 63.7356 72.7748 65.5356 73.2331V67.2748ZM65.5356 57.4206C63.7356 57.6498 61.9356 58.5665 60.8106 60.1706L65.5356 63.379V57.4206ZM67.7856 63.1498L72.5106 59.9415C71.3856 58.5665 69.5856 57.6498 67.7856 57.1915V63.1498ZM72.5106 70.4831L67.7856 67.2748V73.004C69.5856 72.7748 71.3856 71.8581 72.5106 70.4831ZM74.5356 65.2123C74.5356 64.0665 74.3106 62.9206 73.8606 61.7748L68.6856 65.2123L73.8606 68.6498C74.3106 67.504 74.5356 66.3581 74.5356 65.2123Z" fill="#FF5C21" fill-opacity="0.4"/>
<rect x="17.5" y="17.5" width="158" height="96" rx="9.5" stroke="#F5F5F5" shape-rendering="crispEdges"/>
</g>
<defs>
<filter id="filter0_d_63_6181" x="0" y="0" width="193" height="131" filterUnits="userSpaceOnUse" color-interpolation-filters="sRGB">
<feFlood flood-opacity="0" result="BackgroundImageFix"/>
<feColorMatrix in="SourceAlpha" type="matrix" values="0 0 0 0 0 0 0 0 0 0 0 0 0 0 0 0 0 0 127 0" result="hardAlpha"/>
<feOffset/>
<feGaussianBlur stdDeviation="8.5"/>
<feComposite in2="hardAlpha" operator="out"/>
<feColorMatrix type="matrix" values="0 0 0 0 0 0 0 0 0 0 0 0 0 0 0 0 0 0 0.06 0"/>
<feBlend mode="normal" in2="BackgroundImageFix" result="effect1_dropShadow_63_6181"/>
<feBlend mode="normal" in="SourceGraphic" in2="effect1_dropShadow_63_6181" result="shape"/>
</filter>
</defs>
</svg>
