<svg width="44" height="45" viewBox="0 0 44 45" fill="none" xmlns="http://www.w3.org/2000/svg">
<path d="M19.6548 19.1575C19.6548 19.202 19.6186 19.2381 19.5741 19.2381C19.5296 19.2381 19.4935 19.202 19.4935 19.1575V14.7025C19.4935 13.8295 18.7858 13.1218 17.9128 13.1218C17.0399 13.1218 16.3322 13.8295 16.3322 14.7025V19.1575C16.3322 19.202 16.2961 19.2381 16.2516 19.2381C16.207 19.2381 16.1709 19.202 16.1709 19.1575V14.7025C16.1709 13.8295 15.4632 13.1218 14.5903 13.1218C13.7173 13.1218 13.0096 13.8295 13.0096 14.7025V19.9881C13.0096 21.8073 14.1175 23.371 15.6989 23.9631C15.8413 24.0164 15.9591 24.0998 16.0338 24.1869C16.1049 24.2699 16.1245 24.3392 16.1245 24.3936V30.3469C16.1245 31.3134 16.908 32.0969 17.8745 32.0969H17.9511C18.9176 32.0969 19.7011 31.3134 19.7011 30.3469V24.3936C19.7011 24.3392 19.7207 24.2699 19.7919 24.1869C19.8665 24.0998 19.9843 24.0164 20.1268 23.9631L19.8638 23.2607L20.1268 23.9631C21.7082 23.371 22.816 21.8073 22.816 19.9881V14.7025C22.816 13.8295 22.1084 13.1218 21.2354 13.1218C20.3624 13.1218 19.6548 13.8295 19.6548 14.7025V19.1575ZM25.8532 17.3668V23.3569C25.8532 24.3234 26.6367 25.1069 27.6032 25.1069H27.6798C27.8179 25.1069 27.9298 25.2188 27.9298 25.3569V30.807C27.9298 31.5194 28.5073 32.0969 29.2197 32.0969C29.9321 32.0969 30.5096 31.5194 30.5096 30.807V22.6094V14.8718C30.5096 14.394 30.313 13.9358 29.9723 13.6222C29.6189 13.2969 29.1017 13.127 28.5549 13.2929C26.5435 13.903 25.8532 15.9129 25.8532 17.3668Z" stroke="#343434" stroke-width="1.5"/>
</svg>
