<svg width="191" height="42" viewBox="0 0 191 42" fill="none" xmlns="http://www.w3.org/2000/svg">
<path d="M14.5817 26.6957C12.0293 26.6957 9.53413 25.9388 7.41184 24.5207C5.28955 23.1026 3.63543 21.0871 2.65864 18.7289C1.68186 16.3708 1.42629 13.7759 1.92425 11.2725C2.42221 8.76908 3.65133 6.46954 5.4562 4.66468C7.26106 2.85982 9.56059 1.6307 12.064 1.13274C14.5674 0.63478 17.1623 0.890351 19.5204 1.86713C21.8786 2.84392 23.8942 4.49804 25.3122 6.62033C26.7303 8.74262 27.4872 11.2378 27.4872 13.7902L14.5817 13.7902L14.5817 26.6957Z" fill="#FF5C21"/>
<path d="M14.5817 15.3043C17.1342 15.3043 19.6293 16.0612 21.7516 17.4793C23.8739 18.8974 25.528 20.9129 26.5048 23.2711C27.4816 25.6292 27.7372 28.2241 27.2392 30.7275C26.7412 33.2309 25.5121 35.5305 23.7073 37.3353C21.9024 39.1402 19.6029 40.3693 17.0995 40.8673C14.596 41.3652 12.0012 41.1096 9.64302 40.1329C7.28486 39.1561 5.2693 37.502 3.85123 35.3797C2.43316 33.2574 1.67627 30.7622 1.67627 28.2098L14.5817 28.2098L14.5817 15.3043Z" fill="#FE3C00"/>
<g clip-path="url(#clip0_104_6828)">
<path d="M16.1246 30.3125C15.5545 30.3125 15.093 29.8493 15.095 29.2792V29.2792C15.097 28.7117 15.5579 28.2528 16.1255 28.2533L22.298 28.2588C22.8687 28.2593 23.3316 27.7967 23.3316 27.226V27.226C23.3316 26.6553 22.8687 26.1927 22.298 26.1932L16.1255 26.1987C15.5579 26.1992 15.097 25.7403 15.095 25.1727V25.1727C15.093 24.6027 15.5545 24.1395 16.1246 24.1395L22.2984 24.1395C22.869 24.1395 23.3316 23.6769 23.3316 23.1063V23.1063C23.3316 22.5353 22.8685 22.0725 22.2976 22.073L14.065 22.0794C13.2465 22.08 12.4618 22.4053 11.8831 22.984C11.3043 23.5627 10.979 24.3475 10.9785 25.1659V25.1659C10.9785 25.7367 10.5156 26.1994 9.94481 26.1992L-6.0791 26.1927C-6.64992 26.1925 -7.11278 26.6552 -7.11278 27.226V27.226C-7.11278 27.7968 -6.64992 28.2595 -6.0791 28.2592L9.9448 28.2528C10.5156 28.2526 10.9785 28.7152 10.9785 29.2861V29.2861C10.979 30.1045 11.3043 30.8892 11.8831 31.468C12.4618 32.0467 13.2465 32.372 14.065 32.3725L22.2976 32.379C22.8685 32.3794 23.3316 31.9167 23.3316 31.3457V31.3457C23.3316 30.7751 22.869 30.3125 22.2984 30.3125L16.1246 30.3125Z" fill="white"/>
</g>
<path d="M19.6498 13.3249C19.6498 14.2185 19.4643 15.1033 19.104 15.9289C18.7436 16.7545 18.2154 17.5047 17.5496 18.1365C16.8837 18.7684 16.0932 19.2696 15.2232 19.6116C14.3532 19.9536 13.4208 20.1296 12.4791 20.1296C11.5374 20.1296 10.605 19.9536 9.73498 19.6116C8.86499 19.2696 8.0745 18.7684 7.40863 18.1365C6.74277 17.5047 6.21458 16.7545 5.85422 15.9289C5.49386 15.1033 5.30838 14.2185 5.30838 13.3249L12.4791 13.3249H19.6498Z" fill="white"/>
<rect x="17.5694" y="13.3248" width="9.91782" height="2.15823" fill="white"/>
<rect x="1.67627" y="26.0516" width="9.91782" height="2.15823" fill="white"/>
<path d="M40.8492 29.2235C39.2847 29.2235 37.981 29.0075 36.9379 28.5753C35.9098 28.1283 35.135 27.5547 34.6135 26.8544C34.1069 26.1392 33.8387 25.3867 33.8089 24.597C33.8089 24.4629 33.8536 24.3511 33.943 24.2617C34.0324 24.1723 34.1442 24.1276 34.2783 24.1276H37.832C38.0406 24.1276 38.2045 24.1649 38.3237 24.2394C38.4429 24.299 38.5695 24.3884 38.7036 24.5076C38.8377 24.6715 38.9942 24.828 39.173 24.977C39.3518 25.1111 39.5827 25.2228 39.8658 25.3122C40.1489 25.3867 40.4767 25.424 40.8492 25.424C41.5346 25.424 42.0636 25.3346 42.4361 25.1558C42.8086 24.9621 42.9949 24.7013 42.9949 24.3735C42.9949 24.1202 42.8906 23.9116 42.682 23.7477C42.4883 23.5838 42.153 23.4348 41.6762 23.3007C41.1994 23.1666 40.5512 23.025 39.7317 22.876C38.5844 22.6823 37.5936 22.3992 36.7591 22.0267C35.9247 21.6393 35.284 21.1253 34.837 20.4846C34.4049 19.8289 34.1889 19.0243 34.1889 18.0707C34.1889 17.1022 34.4571 16.2455 34.9935 15.5005C35.5448 14.7554 36.3047 14.1743 37.2732 13.7571C38.2566 13.3399 39.3965 13.1313 40.6928 13.1313C41.7656 13.1313 42.7118 13.2729 43.5313 13.556C44.3657 13.8391 45.066 14.2116 45.6322 14.6735C46.1984 15.1205 46.6305 15.6048 46.9285 16.1263C47.2265 16.6478 47.383 17.1469 47.3979 17.6237C47.3979 17.7578 47.3457 17.877 47.2414 17.9813C47.152 18.0707 47.0477 18.1154 46.9285 18.1154H43.196C43.0172 18.1154 42.8608 18.0856 42.7267 18.026C42.6075 17.9664 42.4957 17.8696 42.3914 17.7355C42.3169 17.5269 42.1307 17.3406 41.8327 17.1767C41.5346 17.0128 41.1547 16.9309 40.6928 16.9309C40.1862 16.9309 39.7988 17.0203 39.5306 17.1991C39.2624 17.363 39.1283 17.6088 39.1283 17.9366C39.1283 18.1601 39.2102 18.3538 39.3741 18.5177C39.538 18.6816 39.8286 18.8306 40.2458 18.9647C40.663 19.0839 41.2441 19.218 41.9891 19.367C43.4046 19.5756 44.5445 19.8736 45.4087 20.2611C46.2878 20.6485 46.9285 21.1551 47.3308 21.7809C47.7331 22.4067 47.9343 23.1889 47.9343 24.1276C47.9343 25.1856 47.6288 26.0945 47.0179 26.8544C46.407 27.6143 45.5651 28.2028 44.4923 28.62C43.4344 29.0224 42.2201 29.2235 40.8492 29.2235ZM50.4305 29C50.2815 29 50.1474 28.9478 50.0282 28.8435C49.909 28.7392 49.8494 28.5977 49.8494 28.4189V13.9359C49.8494 13.772 49.909 13.6379 50.0282 13.5336C50.1474 13.4144 50.2815 13.3548 50.4305 13.3548H54.0736C54.2375 13.3548 54.3716 13.4144 54.4759 13.5336C54.5951 13.6379 54.6547 13.772 54.6547 13.9359V18.9871H59.2142V13.9359C59.2142 13.772 59.2663 13.6379 59.3706 13.5336C59.4898 13.4144 59.6314 13.3548 59.7953 13.3548H63.4384C63.6023 13.3548 63.7364 13.4144 63.8407 13.5336C63.9599 13.6379 64.0195 13.772 64.0195 13.9359V28.4189C64.0195 28.5828 63.9599 28.7243 63.8407 28.8435C63.7364 28.9478 63.6023 29 63.4384 29H59.7953C59.6314 29 59.4898 28.9478 59.3706 28.8435C59.2663 28.7243 59.2142 28.5828 59.2142 28.4189V23.2336H54.6547V28.4189C54.6547 28.5828 54.5951 28.7243 54.4759 28.8435C54.3716 28.9478 54.2375 29 54.0736 29H50.4305ZM66.0039 29C65.8698 29 65.7506 28.9553 65.6463 28.8659C65.5569 28.7616 65.5122 28.6424 65.5122 28.5083C65.5122 28.4487 65.5271 28.3965 65.5569 28.3518L70.6528 14.0477C70.6975 13.8838 70.7943 13.7273 70.9433 13.5783C71.1072 13.4293 71.3233 13.3548 71.5915 13.3548H75.6816C75.9647 13.3548 76.1807 13.4293 76.3297 13.5783C76.4787 13.7273 76.5756 13.8838 76.6203 14.0477L81.7385 28.3518C81.7534 28.3965 81.7608 28.4487 81.7608 28.5083C81.7608 28.6424 81.7087 28.7616 81.6044 28.8659C81.515 28.9553 81.4032 29 81.2691 29H77.8272C77.5739 29 77.3876 28.9404 77.2684 28.8212C77.1492 28.702 77.0673 28.5902 77.0226 28.4859L76.3297 26.6085H70.9433L70.2505 28.4859C70.2058 28.5902 70.1238 28.702 70.0046 28.8212C69.9003 28.9404 69.7141 29 69.4459 29H66.0039ZM71.9714 22.8313H75.3016L73.6253 17.8025L71.9714 22.8313ZM83.8249 29C83.6759 29 83.5418 28.9478 83.4226 28.8435C83.3034 28.7243 83.2438 28.5828 83.2438 28.4189V13.9359C83.2438 13.772 83.3034 13.6379 83.4226 13.5336C83.5418 13.4144 83.6759 13.3548 83.8249 13.3548H90.1947C92.2212 13.3548 93.808 13.8167 94.9553 14.7405C96.1176 15.6644 96.6987 16.9532 96.6987 18.6071C96.6987 19.6501 96.4603 20.5367 95.9835 21.2668C95.5066 21.9969 94.8808 22.5706 94.106 22.9878L97.0116 28.2624C97.0563 28.3518 97.0786 28.4338 97.0786 28.5083C97.0786 28.6424 97.0339 28.7616 96.9445 28.8659C96.8551 28.9553 96.7434 29 96.6093 29H92.8321C92.549 29 92.3329 28.9329 92.1839 28.7988C92.0349 28.6498 91.9381 28.5157 91.8934 28.3965L89.6583 23.7924H88.0491V28.4189C88.0491 28.5828 87.9895 28.7243 87.8703 28.8435C87.766 28.9478 87.6319 29 87.468 29H83.8249ZM88.0491 20.1046H90.1724C90.6939 20.1046 91.0813 19.9631 91.3346 19.6799C91.5879 19.3819 91.7146 19.0169 91.7146 18.5848C91.7146 18.1378 91.5879 17.7578 91.3346 17.4449C91.0962 17.132 90.7088 16.9756 90.1724 16.9756H88.0491V20.1046ZM99.6272 29C99.4782 29 99.3441 28.9478 99.2249 28.8435C99.1057 28.7243 99.0461 28.5828 99.0461 28.4189V13.9359C99.0461 13.772 99.1057 13.6379 99.2249 13.5336C99.3441 13.4144 99.4782 13.3548 99.6272 13.3548H110.579C110.743 13.3548 110.884 13.4144 111.004 13.5336C111.123 13.6379 111.182 13.772 111.182 13.9359V16.5733C111.182 16.7223 111.123 16.8564 111.004 16.9756C110.884 17.0948 110.743 17.1544 110.579 17.1544H103.673V19.367H110.087C110.251 19.367 110.393 19.4266 110.512 19.5458C110.631 19.6501 110.691 19.7842 110.691 19.9482V22.362C110.691 22.5259 110.631 22.6674 110.512 22.7866C110.393 22.8909 110.251 22.9431 110.087 22.9431H103.673V25.2005H110.758C110.922 25.2005 111.063 25.2601 111.182 25.3793C111.302 25.4985 111.361 25.64 111.361 25.8039V28.4189C111.361 28.5828 111.302 28.7243 111.182 28.8435C111.063 28.9478 110.922 29 110.758 29H99.6272ZM118.682 29C118.533 29 118.399 28.9478 118.279 28.8435C118.16 28.7243 118.101 28.5828 118.101 28.4189V13.9359C118.101 13.772 118.16 13.6379 118.279 13.5336C118.399 13.4144 118.533 13.3548 118.682 13.3548H125.208C126.504 13.3548 127.629 13.5485 128.583 13.9359C129.551 14.3233 130.304 14.9119 130.84 15.7016C131.377 16.4913 131.645 17.4822 131.645 18.6742C131.645 19.8662 131.377 20.8496 130.84 21.6244C130.304 22.3843 129.551 22.9431 128.583 23.3007C127.629 23.6583 126.504 23.8371 125.208 23.8371H123.085V28.4189C123.085 28.5828 123.025 28.7243 122.906 28.8435C122.802 28.9478 122.667 29 122.504 29H118.682ZM122.995 20.2387H125.096C125.528 20.2387 125.893 20.1121 126.191 19.8587C126.504 19.5905 126.661 19.1808 126.661 18.6295C126.661 18.2123 126.542 17.8323 126.303 17.4896C126.065 17.1469 125.662 16.9756 125.096 16.9756H122.995V20.2387ZM134.135 29C133.986 29 133.852 28.9478 133.732 28.8435C133.613 28.7243 133.554 28.5828 133.554 28.4189V13.9359C133.554 13.772 133.613 13.6379 133.732 13.5336C133.852 13.4144 133.986 13.3548 134.135 13.3548H137.845C138.009 13.3548 138.15 13.4144 138.27 13.5336C138.389 13.6379 138.448 13.772 138.448 13.9359V25.0217H144.908C145.072 25.0217 145.213 25.0813 145.332 25.2005C145.451 25.3048 145.511 25.4389 145.511 25.6028V28.4189C145.511 28.5828 145.451 28.7243 145.332 28.8435C145.213 28.9478 145.072 29 144.908 29H134.135ZM146.412 29C146.278 29 146.159 28.9553 146.055 28.8659C145.965 28.7616 145.921 28.6424 145.921 28.5083C145.921 28.4487 145.936 28.3965 145.965 28.3518L151.061 14.0477C151.106 13.8838 151.203 13.7273 151.352 13.5783C151.516 13.4293 151.732 13.3548 152 13.3548H156.09C156.373 13.3548 156.589 13.4293 156.738 13.5783C156.887 13.7273 156.984 13.8838 157.029 14.0477L162.147 28.3518C162.162 28.3965 162.169 28.4487 162.169 28.5083C162.169 28.6424 162.117 28.7616 162.013 28.8659C161.923 28.9553 161.812 29 161.678 29H158.236C157.982 29 157.796 28.9404 157.677 28.8212C157.558 28.702 157.476 28.5902 157.431 28.4859L156.738 26.6085H151.352L150.659 28.4859C150.614 28.5902 150.532 28.702 150.413 28.8212C150.309 28.9404 150.123 29 149.854 29H146.412ZM152.38 22.8313H155.71L154.034 17.8025L152.38 22.8313ZM166.126 29C165.962 29 165.821 28.9478 165.702 28.8435C165.597 28.7243 165.545 28.5828 165.545 28.4189V17.512H161.701C161.537 17.512 161.395 17.4598 161.276 17.3555C161.172 17.2363 161.12 17.0948 161.12 16.9309V13.9359C161.12 13.772 161.172 13.6379 161.276 13.5336C161.395 13.4144 161.537 13.3548 161.701 13.3548H174.262C174.426 13.3548 174.56 13.4144 174.664 13.5336C174.783 13.6379 174.843 13.772 174.843 13.9359V16.9309C174.843 17.0948 174.783 17.2363 174.664 17.3555C174.56 17.4598 174.426 17.512 174.262 17.512H170.417V28.4189C170.417 28.5828 170.358 28.7243 170.239 28.8435C170.134 28.9478 170 29 169.836 29H166.126ZM177.242 29C177.093 29 176.959 28.9478 176.84 28.8435C176.72 28.7243 176.661 28.5828 176.661 28.4189V13.9359C176.661 13.772 176.72 13.6379 176.84 13.5336C176.959 13.4144 177.093 13.3548 177.242 13.3548H188.194C188.357 13.3548 188.499 13.4144 188.618 13.5336C188.737 13.6379 188.797 13.772 188.797 13.9359V16.5733C188.797 16.7223 188.737 16.8564 188.618 16.9756C188.499 17.0948 188.357 17.1544 188.194 17.1544H181.287V19.367H187.702C187.866 19.367 188.007 19.4266 188.127 19.5458C188.246 19.6501 188.305 19.7842 188.305 19.9482V22.362C188.305 22.5259 188.246 22.6674 188.127 22.7866C188.007 22.8909 187.866 22.9431 187.702 22.9431H181.287V25.2005H188.372C188.536 25.2005 188.678 25.2601 188.797 25.3793C188.916 25.4985 188.976 25.64 188.976 25.8039V28.4189C188.976 28.5828 188.916 28.7243 188.797 28.8435C188.678 28.9478 188.536 29 188.372 29H177.242Z" fill="#FF5C21"/>
<defs>
<clipPath id="clip0_104_6828">
<rect width="24.7071" height="24.7071" fill="white" transform="translate(26.9353 14.8726) rotate(90)"/>
</clipPath>
</defs>
</svg>
