<svg width="343" height="73" viewBox="0 0 343 73" fill="none" xmlns="http://www.w3.org/2000/svg">
<path d="M26.0968 46.5898C21.5287 46.5898 17.0631 45.2351 13.2649 42.6972C9.46666 40.1593 6.50629 36.5521 4.75815 32.3317C3.01001 28.1114 2.55262 23.4674 3.44381 18.987C4.33501 14.5067 6.53476 10.3913 9.7649 7.16112C12.995 3.93098 17.1105 1.73123 21.5908 0.840037C26.0711 -0.0511565 30.7151 0.406237 34.9355 2.15438C39.1559 3.90251 42.7631 6.86288 45.301 10.6611C47.8389 14.4594 49.1935 18.9249 49.1935 23.493L26.0968 23.493L26.0968 46.5898Z" fill="#FF5C21"/>
<path d="M26.0968 26.2029C30.6649 26.2029 35.1304 27.5575 38.9286 30.0954C42.7269 32.6333 45.6872 36.2405 47.4354 40.4609C49.1835 44.6812 49.6409 49.3252 48.7497 53.8056C47.8585 58.2859 45.6588 62.4013 42.4286 65.6315C39.1985 68.8616 35.083 71.0614 30.6027 71.9526C26.1224 72.8438 21.4784 72.3864 17.258 70.6382C13.0376 68.8901 9.43041 65.9297 6.89251 62.1315C4.3546 58.3332 3 53.8677 3 49.2996L26.0968 49.2996L26.0968 26.2029Z" fill="#FE3C00"/>
<g clip-path="url(#clip0_104_6828)">
<path d="M28.858 53.0627C27.8378 53.0627 27.0117 52.2338 27.0154 51.2136V51.2136C27.0189 50.1978 27.8439 49.3766 28.8596 49.3775L39.9064 49.3872C40.9279 49.3881 41.7564 48.5603 41.7564 47.5389V47.5389C41.7564 46.5175 40.9279 45.6897 39.9064 45.6906L28.8596 45.7004C27.8439 45.7012 27.0189 44.88 27.0154 43.8642V43.8642C27.0117 42.844 27.8378 42.0151 28.858 42.0151L39.9071 42.0151C40.9284 42.0151 41.7564 41.1872 41.7564 40.1659V40.1659C41.7564 39.144 40.9276 38.3158 39.9057 38.3166L25.1719 38.3282C23.7072 38.3291 22.3027 38.9114 21.267 39.9471C20.2312 40.9828 19.649 42.3873 19.6481 43.852V43.852C19.6481 44.8736 18.8197 45.7016 17.7981 45.7012L-10.8797 45.6897C-11.9013 45.6893 -12.7297 46.5173 -12.7297 47.5389V47.5389C-12.7297 48.5605 -11.9013 49.3885 -10.8797 49.3881L17.7981 49.3766C18.8197 49.3762 19.6481 50.2042 19.6481 51.2258V51.2258C19.649 52.6905 20.2312 54.095 21.267 55.1307C22.3027 56.1664 23.7072 56.7487 25.1719 56.7496L39.9057 56.7612C40.9276 56.762 41.7564 55.9338 41.7564 54.912V54.912C41.7564 53.8907 40.9284 53.0627 39.9071 53.0627L28.858 53.0627Z" fill="white"/>
</g>
<path d="M35.1671 22.6602C35.1671 24.2594 34.8351 25.8431 34.1902 27.3206C33.5453 28.7982 32.6 30.1407 31.4083 31.2716C30.2166 32.4024 28.8018 33.2995 27.2448 33.9115C25.6878 34.5235 24.019 34.8385 22.3337 34.8385C20.6484 34.8385 18.9796 34.5235 17.4226 33.9115C15.8656 33.2995 14.4508 32.4024 13.2592 31.2716C12.0675 30.1407 11.1222 28.7982 10.4772 27.3206C9.8323 25.8431 9.50035 24.2594 9.50035 22.6602L22.3337 22.6602H35.1671Z" fill="white"/>
<rect x="31.4437" y="22.6602" width="17.7498" height="3.86257" fill="white"/>
<rect x="3" y="45.437" width="17.7498" height="3.86257" fill="white"/>
<path d="M73.1168 50.2962C70.3168 50.2962 67.9835 49.9096 66.1168 49.1362C64.2768 48.3362 62.8902 47.3096 61.9568 46.0562C61.0502 44.7762 60.5702 43.4296 60.5168 42.0162C60.5168 41.7762 60.5968 41.5762 60.7568 41.4162C60.9168 41.2562 61.1168 41.1762 61.3568 41.1762H67.7168C68.0902 41.1762 68.3835 41.2429 68.5968 41.3762C68.8102 41.4829 69.0368 41.6429 69.2768 41.8562C69.5168 42.1496 69.7968 42.4296 70.1168 42.6962C70.4368 42.9362 70.8502 43.1362 71.3568 43.2962C71.8635 43.4296 72.4502 43.4962 73.1168 43.4962C74.3435 43.4962 75.2902 43.3362 75.9568 43.0162C76.6235 42.6696 76.9568 42.2029 76.9568 41.6162C76.9568 41.1629 76.7702 40.7896 76.3968 40.4962C76.0502 40.2029 75.4502 39.9362 74.5968 39.6962C73.7435 39.4562 72.5835 39.2029 71.1168 38.9362C69.0635 38.5896 67.2902 38.0829 65.7968 37.4162C64.3035 36.7229 63.1568 35.8029 62.3568 34.6562C61.5835 33.4829 61.1968 32.0429 61.1968 30.3362C61.1968 28.6029 61.6768 27.0696 62.6368 25.7362C63.6235 24.4029 64.9835 23.3629 66.7168 22.6162C68.4768 21.8696 70.5168 21.4962 72.8368 21.4962C74.7568 21.4962 76.4502 21.7496 77.9168 22.2562C79.4102 22.7629 80.6635 23.4296 81.6768 24.2562C82.6902 25.0562 83.4635 25.9229 83.9968 26.8562C84.5302 27.7896 84.8102 28.6829 84.8368 29.5362C84.8368 29.7762 84.7435 29.9896 84.5568 30.1762C84.3968 30.3362 84.2102 30.4162 83.9968 30.4162H77.3168C76.9968 30.4162 76.7168 30.3629 76.4768 30.2562C76.2635 30.1496 76.0635 29.9762 75.8768 29.7362C75.7435 29.3629 75.4102 29.0296 74.8768 28.7362C74.3435 28.4429 73.6635 28.2962 72.8368 28.2962C71.9302 28.2962 71.2368 28.4562 70.7568 28.7762C70.2768 29.0696 70.0368 29.5096 70.0368 30.0962C70.0368 30.4962 70.1835 30.8429 70.4768 31.1362C70.7702 31.4296 71.2902 31.6962 72.0368 31.9362C72.7835 32.1496 73.8235 32.3896 75.1568 32.6562C77.6902 33.0296 79.7302 33.5629 81.2768 34.2562C82.8502 34.9496 83.9968 35.8562 84.7168 36.9762C85.4368 38.0962 85.7968 39.4962 85.7968 41.1762C85.7968 43.0696 85.2502 44.6962 84.1568 46.0562C83.0635 47.4162 81.5568 48.4696 79.6368 49.2162C77.7435 49.9362 75.5702 50.2962 73.1168 50.2962ZM90.2643 49.8962C89.9977 49.8962 89.7577 49.8029 89.5443 49.6162C89.331 49.4296 89.2243 49.1762 89.2243 48.8562V22.9362C89.2243 22.6429 89.331 22.4029 89.5443 22.2162C89.7577 22.0029 89.9977 21.8962 90.2643 21.8962H96.7843C97.0777 21.8962 97.3177 22.0029 97.5043 22.2162C97.7177 22.4029 97.8243 22.6429 97.8243 22.9362V31.9762H105.984V22.9362C105.984 22.6429 106.078 22.4029 106.264 22.2162C106.478 22.0029 106.731 21.8962 107.024 21.8962H113.544C113.838 21.8962 114.078 22.0029 114.264 22.2162C114.478 22.4029 114.584 22.6429 114.584 22.9362V48.8562C114.584 49.1496 114.478 49.4029 114.264 49.6162C114.078 49.8029 113.838 49.8962 113.544 49.8962H107.024C106.731 49.8962 106.478 49.8029 106.264 49.6162C106.078 49.4029 105.984 49.1496 105.984 48.8562V39.5762H97.8243V48.8562C97.8243 49.1496 97.7177 49.4029 97.5043 49.6162C97.3177 49.8029 97.0777 49.8962 96.7843 49.8962H90.2643ZM118.136 49.8962C117.896 49.8962 117.683 49.8162 117.496 49.6562C117.336 49.4696 117.256 49.2562 117.256 49.0162C117.256 48.9096 117.283 48.8162 117.336 48.7362L126.456 23.1362C126.536 22.8429 126.709 22.5629 126.976 22.2962C127.269 22.0296 127.656 21.8962 128.136 21.8962H135.456C135.963 21.8962 136.349 22.0296 136.616 22.2962C136.883 22.5629 137.056 22.8429 137.136 23.1362L146.296 48.7362C146.323 48.8162 146.336 48.9096 146.336 49.0162C146.336 49.2562 146.243 49.4696 146.056 49.6562C145.896 49.8162 145.696 49.8962 145.456 49.8962H139.296C138.843 49.8962 138.509 49.7896 138.296 49.5762C138.083 49.3629 137.936 49.1629 137.856 48.9762L136.616 45.6162H126.976L125.736 48.9762C125.656 49.1629 125.509 49.3629 125.296 49.5762C125.109 49.7896 124.776 49.8962 124.296 49.8962H118.136ZM128.816 38.8562H134.776L131.776 29.8562L128.816 38.8562ZM150.03 49.8962C149.763 49.8962 149.523 49.8029 149.31 49.6162C149.097 49.4029 148.99 49.1496 148.99 48.8562V22.9362C148.99 22.6429 149.097 22.4029 149.31 22.2162C149.523 22.0029 149.763 21.8962 150.03 21.8962H161.43C165.057 21.8962 167.897 22.7229 169.95 24.3762C172.03 26.0296 173.07 28.3362 173.07 31.2962C173.07 33.1629 172.643 34.7496 171.79 36.0562C170.937 37.3629 169.817 38.3896 168.43 39.1362L173.63 48.5762C173.71 48.7362 173.75 48.8829 173.75 49.0162C173.75 49.2562 173.67 49.4696 173.51 49.6562C173.35 49.8162 173.15 49.8962 172.91 49.8962H166.15C165.643 49.8962 165.257 49.7762 164.99 49.5362C164.723 49.2696 164.55 49.0296 164.47 48.8162L160.47 40.5762H157.59V48.8562C157.59 49.1496 157.483 49.4029 157.27 49.6162C157.083 49.8029 156.843 49.8962 156.55 49.8962H150.03ZM157.59 33.9762H161.39C162.323 33.9762 163.017 33.7229 163.47 33.2162C163.923 32.6829 164.15 32.0296 164.15 31.2562C164.15 30.4562 163.923 29.7762 163.47 29.2162C163.043 28.6562 162.35 28.3762 161.39 28.3762H157.59V33.9762ZM178.311 49.8962C178.045 49.8962 177.805 49.8029 177.591 49.6162C177.378 49.4029 177.271 49.1496 177.271 48.8562V22.9362C177.271 22.6429 177.378 22.4029 177.591 22.2162C177.805 22.0029 178.045 21.8962 178.311 21.8962H197.911C198.205 21.8962 198.458 22.0029 198.671 22.2162C198.885 22.4029 198.991 22.6429 198.991 22.9362V27.6562C198.991 27.9229 198.885 28.1629 198.671 28.3762C198.458 28.5896 198.205 28.6962 197.911 28.6962H185.551V32.6562H197.031C197.325 32.6562 197.578 32.7629 197.791 32.9762C198.005 33.1629 198.111 33.4029 198.111 33.6962V38.0162C198.111 38.3096 198.005 38.5629 197.791 38.7762C197.578 38.9629 197.325 39.0562 197.031 39.0562H185.551V43.0962H198.231C198.525 43.0962 198.778 43.2029 198.991 43.4162C199.205 43.6296 199.311 43.8829 199.311 44.1762V48.8562C199.311 49.1496 199.205 49.4029 198.991 49.6162C198.778 49.8029 198.525 49.8962 198.231 49.8962H178.311ZM212.413 49.8962C212.146 49.8962 211.906 49.8029 211.693 49.6162C211.479 49.4029 211.373 49.1496 211.373 48.8562V22.9362C211.373 22.6429 211.479 22.4029 211.693 22.2162C211.906 22.0029 212.146 21.8962 212.413 21.8962H224.093C226.413 21.8962 228.426 22.2429 230.133 22.9362C231.866 23.6296 233.213 24.6829 234.173 26.0962C235.133 27.5096 235.613 29.2829 235.613 31.4162C235.613 33.5496 235.133 35.3096 234.173 36.6962C233.213 38.0562 231.866 39.0562 230.133 39.6962C228.426 40.3362 226.413 40.6562 224.093 40.6562H220.293V48.8562C220.293 49.1496 220.186 49.4029 219.973 49.6162C219.786 49.8029 219.546 49.8962 219.253 49.8962H212.413ZM220.133 34.2162H223.893C224.666 34.2162 225.319 33.9896 225.853 33.5362C226.413 33.0562 226.693 32.3229 226.693 31.3362C226.693 30.5896 226.479 29.9096 226.053 29.2962C225.626 28.6829 224.906 28.3762 223.893 28.3762H220.133V34.2162ZM240.069 49.8962C239.802 49.8962 239.562 49.8029 239.349 49.6162C239.136 49.4029 239.029 49.1496 239.029 48.8562V22.9362C239.029 22.6429 239.136 22.4029 239.349 22.2162C239.562 22.0029 239.802 21.8962 240.069 21.8962H246.709C247.002 21.8962 247.256 22.0029 247.469 22.2162C247.682 22.4029 247.789 22.6429 247.789 22.9362V42.7762H259.349C259.642 42.7762 259.896 42.8829 260.109 43.0962C260.322 43.2829 260.429 43.5229 260.429 43.8162V48.8562C260.429 49.1496 260.322 49.4029 260.109 49.6162C259.896 49.8029 259.642 49.8962 259.349 49.8962H240.069ZM262.042 49.8962C261.802 49.8962 261.589 49.8162 261.402 49.6562C261.242 49.4696 261.162 49.2562 261.162 49.0162C261.162 48.9096 261.189 48.8162 261.242 48.7362L270.362 23.1362C270.442 22.8429 270.615 22.5629 270.882 22.2962C271.175 22.0296 271.562 21.8962 272.042 21.8962H279.362C279.869 21.8962 280.255 22.0296 280.522 22.2962C280.789 22.5629 280.962 22.8429 281.042 23.1362L290.202 48.7362C290.229 48.8162 290.242 48.9096 290.242 49.0162C290.242 49.2562 290.149 49.4696 289.962 49.6562C289.802 49.8162 289.602 49.8962 289.362 49.8962H283.202C282.749 49.8962 282.415 49.7896 282.202 49.5762C281.989 49.3629 281.842 49.1629 281.762 48.9762L280.522 45.6162H270.882L269.642 48.9762C269.562 49.1629 269.415 49.3629 269.202 49.5762C269.015 49.7896 268.682 49.8962 268.202 49.8962H262.042ZM272.722 38.8562H278.682L275.682 29.8562L272.722 38.8562ZM297.324 49.8962C297.03 49.8962 296.777 49.8029 296.564 49.6162C296.377 49.4029 296.284 49.1496 296.284 48.8562V29.3362H289.404C289.11 29.3362 288.857 29.2429 288.644 29.0562C288.457 28.8429 288.364 28.5896 288.364 28.2962V22.9362C288.364 22.6429 288.457 22.4029 288.644 22.2162C288.857 22.0029 289.11 21.8962 289.404 21.8962H311.884C312.177 21.8962 312.417 22.0029 312.604 22.2162C312.817 22.4029 312.924 22.6429 312.924 22.9362V28.2962C312.924 28.5896 312.817 28.8429 312.604 29.0562C312.417 29.2429 312.177 29.3362 311.884 29.3362H305.004V48.8562C305.004 49.1496 304.897 49.4029 304.684 49.6162C304.497 49.8029 304.257 49.8962 303.964 49.8962H297.324ZM317.217 49.8962C316.951 49.8962 316.711 49.8029 316.497 49.6162C316.284 49.4029 316.177 49.1496 316.177 48.8562V22.9362C316.177 22.6429 316.284 22.4029 316.497 22.2162C316.711 22.0029 316.951 21.8962 317.217 21.8962H336.817C337.111 21.8962 337.364 22.0029 337.577 22.2162C337.791 22.4029 337.897 22.6429 337.897 22.9362V27.6562C337.897 27.9229 337.791 28.1629 337.577 28.3762C337.364 28.5896 337.111 28.6962 336.817 28.6962H324.457V32.6562H335.937C336.231 32.6562 336.484 32.7629 336.697 32.9762C336.911 33.1629 337.017 33.4029 337.017 33.6962V38.0162C337.017 38.3096 336.911 38.5629 336.697 38.7762C336.484 38.9629 336.231 39.0562 335.937 39.0562H324.457V43.0962H337.137C337.431 43.0962 337.684 43.2029 337.897 43.4162C338.111 43.6296 338.217 43.8829 338.217 44.1762V48.8562C338.217 49.1496 338.111 49.4029 337.897 49.6162C337.684 49.8029 337.431 49.8962 337.137 49.8962H317.217Z" fill="#FF5C21"/>
<defs>
<clipPath id="clip0_104_6828">
<rect width="44.2181" height="44.2181" fill="white" transform="translate(48.2059 25.4299) rotate(90)"/>
</clipPath>
</defs>
</svg>
