<svg width="121" height="32" viewBox="0 0 121 32" fill="none" xmlns="http://www.w3.org/2000/svg">
<path d="M0 4.047C0 1.83786 1.79086 0.0469971 4 0.0469971H117C119.209 0.0469971 121 1.83786 121 4.047V31.047H0V4.047Z" fill="#FF5C21"/>
<path d="M22.2167 24.7136H23.6C24.3 24.7136 24.875 24.172 24.9583 23.4886L26.3333 9.75531H22.1667V6.38031H20.525V9.75531H16.3833L16.6333 11.7053C18.0583 12.097 19.3917 12.8053 20.1917 13.5886C21.3917 14.772 22.2167 15.997 22.2167 17.997V24.7136M8 23.8803V23.047H20.525V23.8803C20.525 24.3303 20.15 24.7136 19.6667 24.7136H8.83333C8.375 24.7136 8 24.3303 8 23.8803ZM20.525 18.047C20.525 11.3803 8 11.3803 8 18.047H20.525ZM8 19.7136H20.5V21.3803H8V19.7136Z" fill="white"/>
<path d="M39.2668 11.997V18.247H42.9268V11.997H41.6968V14.077H40.5168V11.997H39.2668ZM40.5168 15.117H41.6968V17.187H40.5168V15.117ZM45.6968 11.177V20.437H46.9668V11.177H45.6968ZM44.5568 14.707V15.777H46.0968V14.707H44.5568ZM43.6668 11.317V20.017H44.9168V11.317H43.6668ZM48.526 14.537V15.577H49.296C51.276 15.577 52.396 15.537 53.586 15.267L53.446 14.237C52.276 14.477 51.226 14.537 49.296 14.537H48.526ZM48.526 11.657V15.117H49.846V12.697H52.666V11.657H48.526ZM54.166 11.177V15.777H55.496V11.177H54.166ZM55.126 12.917V13.997H56.726V12.917H55.126ZM49.376 16.157V17.197H54.186V17.737H49.396V19.827H50.716V18.717H55.496V16.157H49.376ZM49.396 19.287V20.337H55.766V19.287H49.396ZM61.3409 11.807V12.177C61.3409 13.087 60.8209 13.957 59.5909 14.337L60.2409 15.317C61.7209 14.837 62.3509 13.607 62.3509 12.177V11.807H61.3409ZM61.6309 11.807V12.177C61.6309 13.547 62.1909 14.667 63.5509 15.107L64.1909 14.137C63.1109 13.817 62.6209 13.047 62.6209 12.177V11.807H61.6309ZM66.5109 11.177V20.437H67.7709V11.177H66.5109ZM64.6609 11.327V20.007H65.9009V11.327H64.6609ZM63.2009 17.087V18.097H65.0609V17.087H63.2009ZM61.3209 16.187V19.737H62.5809V16.187H61.3209ZM59.6809 16.767C60.8709 16.767 62.7709 16.737 64.2709 16.417L64.1909 15.447C62.7309 15.667 60.7609 15.687 59.5409 15.687L59.6809 16.767ZM71.4101 11.817C70.0201 11.817 69.0201 13.097 69.0201 15.117C69.0201 17.157 70.0201 18.437 71.4101 18.437C72.7901 18.437 73.8001 17.157 73.8001 15.117C73.8001 13.097 72.7901 11.817 71.4101 11.817ZM71.4101 13.027C72.0901 13.027 72.5301 13.757 72.5301 15.117C72.5301 16.497 72.0901 17.237 71.4101 17.237C70.7401 17.237 70.2901 16.497 70.2901 15.117C70.2901 13.757 70.7401 13.027 71.4101 13.027ZM75.3201 11.167V20.457H76.6401V11.167H75.3201ZM73.4101 14.507V15.577H75.8801V14.507H73.4101ZM80.3449 18.287V19.367H88.7249V18.287H80.3449ZM83.8549 16.237V18.537H85.1849V16.237H83.8549ZM81.2149 11.857V16.407H87.8049V11.857H81.2149ZM86.5049 12.917V15.357H82.5249V12.917H86.5049ZM91.7842 11.977V12.547C91.7842 13.637 91.1142 14.757 89.5642 15.207L90.2342 16.247C92.0142 15.707 92.8742 14.207 92.8742 12.547V11.977H91.7842ZM92.0542 11.977V12.547C92.0542 14.147 92.9142 15.577 94.6642 16.087L95.3142 15.057C93.8142 14.627 93.1442 13.577 93.1442 12.547V11.977H92.0542ZM89.9242 11.677V12.727H94.9642V11.677H89.9242ZM95.8942 11.177V16.197H97.2342V11.177H95.8942ZM91.0742 16.597V20.337H97.2342V16.597H95.9142V17.437H92.3842V16.597H91.0742ZM92.3842 18.467H95.9142V19.277H92.3842V18.467Z" fill="white"/>
</svg>
