<svg width="121" height="32" viewBox="0 0 121 32" fill="none" xmlns="http://www.w3.org/2000/svg">
<path d="M0 0.0469971H121V27.047C121 29.2561 119.209 31.047 117 31.047H4C1.79086 31.047 0 29.2561 0 27.047V0.0469971Z" fill="#FF5C21"/>
<path d="M15.5 18.797C13.75 18.6303 12.25 17.9637 11.3333 16.8803C10.6666 16.8803 9.99997 16.4637 9.74997 15.797C9.49997 15.1303 9.74997 14.4637 10.3333 14.047C10.4166 11.547 12.6666 8.96365 16.0833 7.79699C19.5 6.63032 23 7.29699 24.6666 9.21365C25.3333 9.21365 26 9.63032 26.25 10.297C26.5 10.9637 26.25 11.6303 25.6666 12.047C25.6666 12.7137 25.5 13.3803 25.1666 14.047C24.1666 13.4637 23 13.047 21.75 13.047C18.5 13.047 15.75 15.547 15.5 18.797ZM26.3333 19.297C26.3333 21.797 24.25 23.8803 21.75 23.8803C19.25 23.8803 17.1666 21.797 17.1666 19.297C17.1666 16.797 19.25 14.7137 21.75 14.7137C24.25 14.7137 26.3333 16.797 26.3333 19.297ZM19.0833 20.547L21 19.297L19.0833 18.047C18.9166 18.4637 18.8333 18.8803 18.8333 19.297C18.8333 19.7137 18.9166 20.1303 19.0833 20.547ZM21.3333 20.047L19.5833 21.2137C20 21.7137 20.6666 22.047 21.3333 22.2137V20.047M21.3333 16.4637C20.6666 16.547 20 16.8803 19.5833 17.4637L21.3333 18.6303V16.4637ZM22.1666 18.547L23.9166 17.3803C23.5 16.8803 22.8333 16.547 22.1666 16.3803V18.547ZM23.9166 21.2137L22.1666 20.047V22.1303C22.8333 22.047 23.5 21.7137 23.9166 21.2137M24.6666 19.297C24.6666 18.8803 24.5833 18.4637 24.4166 18.047L22.5 19.297L24.4166 20.547C24.5833 20.1303 24.6666 19.7137 24.6666 19.297Z" fill="white"/>
<path d="M47.4334 11.177V20.437H48.6934V11.177H47.4334ZM46.3234 14.727V15.807H47.8634V14.727H46.3234ZM45.4434 11.317V20.017H46.6834V11.317H45.4434ZM42.3234 12.617V13.437C42.3234 15.217 41.8834 16.857 40.4934 17.657L41.2934 18.677C42.8334 17.747 43.3334 15.727 43.3334 13.437V12.617H42.3234ZM42.5934 12.617V13.437C42.5934 15.587 43.1434 17.497 44.7034 18.337L45.4634 17.327C44.0834 16.607 43.6134 15.067 43.6134 13.437V12.617H42.5934ZM40.7934 12.117V13.187H45.0034V12.117H40.7934ZM52.0027 16.577V18.757H53.3027V16.577H52.0027ZM54.9327 16.567V18.757H56.2327V16.567H54.9327ZM49.8827 18.337V19.417H58.2627V18.337H49.8827ZM50.8227 11.777V12.827H56.0027V13.807H50.8427V16.417H52.1627V14.847H57.3227V11.777H50.8227ZM50.8427 15.857V16.927H57.5327V15.857H50.8427ZM63.0075 11.807V12.177C63.0075 13.087 62.4875 13.957 61.2575 14.337L61.9075 15.317C63.3875 14.837 64.0175 13.607 64.0175 12.177V11.807H63.0075ZM63.2975 11.807V12.177C63.2975 13.547 63.8575 14.667 65.2175 15.107L65.8575 14.137C64.7775 13.817 64.2875 13.047 64.2875 12.177V11.807H63.2975ZM68.1775 11.177V20.437H69.4375V11.177H68.1775ZM66.3275 11.327V20.007H67.5675V11.327H66.3275ZM64.8675 17.087V18.097H66.7275V17.087H64.8675ZM62.9875 16.187V19.737H64.2475V16.187H62.9875ZM61.3475 16.767C62.5375 16.767 64.4375 16.737 65.9375 16.417L65.8575 15.447C64.3975 15.667 62.4275 15.687 61.2075 15.687L61.3475 16.767ZM73.0767 11.817C71.6867 11.817 70.6867 13.097 70.6867 15.117C70.6867 17.157 71.6867 18.437 73.0767 18.437C74.4567 18.437 75.4667 17.157 75.4667 15.117C75.4667 13.097 74.4567 11.817 73.0767 11.817ZM73.0767 13.027C73.7567 13.027 74.1967 13.757 74.1967 15.117C74.1967 16.497 73.7567 17.237 73.0767 17.237C72.4067 17.237 71.9567 16.497 71.9567 15.117C71.9567 13.757 72.4067 13.027 73.0767 13.027ZM76.9867 11.167V20.457H78.3067V11.167H76.9867ZM75.0767 14.507V15.577H77.5467V14.507H75.0767ZM82.0116 18.287V19.367H90.3916V18.287H82.0116ZM85.5216 16.237V18.537H86.8516V16.237H85.5216ZM82.8816 11.857V16.407H89.4716V11.857H82.8816ZM88.1716 12.917V15.357H84.1916V12.917H88.1716ZM93.4508 11.977V12.547C93.4508 13.637 92.7808 14.757 91.2308 15.207L91.9008 16.247C93.6808 15.707 94.5408 14.207 94.5408 12.547V11.977H93.4508ZM93.7208 11.977V12.547C93.7208 14.147 94.5808 15.577 96.3308 16.087L96.9808 15.057C95.4808 14.627 94.8108 13.577 94.8108 12.547V11.977H93.7208ZM91.5908 11.677V12.727H96.6308V11.677H91.5908ZM97.5608 11.177V16.197H98.9008V11.177H97.5608ZM92.7408 16.597V20.337H98.9008V16.597H97.5808V17.437H94.0508V16.597H92.7408ZM94.0508 18.467H97.5808V19.277H94.0508V18.467Z" fill="white"/>
</svg>
